<mxfile host="app.diagrams.net" modified="2024-06-21T11:17:03.349Z" agent="Mozilla/5.0 (Windows NT 10.0; Win64; x64) AppleWebKit/537.36 (KHTML, like Gecko) Chrome/126.0.0.0 Safari/537.36" etag="vnES-MsbchwYqo18g8x5" version="24.4.9" type="device">
  <diagram name="PÃ¡gina-1" id="KKU4vmKRQS79xznbbIGD">
    <mxGraphModel dx="1050" dy="557" grid="1" gridSize="10" guides="1" tooltips="1" connect="1" arrows="1" fold="1" page="1" pageScale="1" pageWidth="1169" pageHeight="827" math="0" shadow="0">
      <root>
        <mxCell id="0" />
        <mxCell id="1" parent="0" />
        <mxCell id="b4sl9bxFcRuKotRHlQ8d-1" value="" style="ellipse;html=1;shape=startState;fillColor=#000000;strokeColor=#ff0000;" parent="1" vertex="1">
          <mxGeometry x="106.25" y="71" width="30" height="30" as="geometry" />
        </mxCell>
        <mxCell id="b4sl9bxFcRuKotRHlQ8d-2" value="" style="edgeStyle=orthogonalEdgeStyle;html=1;verticalAlign=bottom;endArrow=open;endSize=8;strokeColor=#ff0000;rounded=0;entryX=0.5;entryY=0;entryDx=0;entryDy=0;" parent="1" source="b4sl9bxFcRuKotRHlQ8d-1" target="b4sl9bxFcRuKotRHlQ8d-3" edge="1">
          <mxGeometry relative="1" as="geometry">
            <mxPoint x="121.25" y="131" as="targetPoint" />
          </mxGeometry>
        </mxCell>
        <mxCell id="b4sl9bxFcRuKotRHlQ8d-6" value="TRUE" style="edgeStyle=orthogonalEdgeStyle;rounded=0;orthogonalLoop=1;jettySize=auto;html=1;exitX=1;exitY=0.5;exitDx=0;exitDy=0;entryX=0;entryY=0.5;entryDx=0;entryDy=0;" parent="1" source="b4sl9bxFcRuKotRHlQ8d-3" target="b4sl9bxFcRuKotRHlQ8d-4" edge="1">
          <mxGeometry relative="1" as="geometry" />
        </mxCell>
        <mxCell id="b4sl9bxFcRuKotRHlQ8d-10" value="FALSE" style="edgeStyle=orthogonalEdgeStyle;rounded=0;orthogonalLoop=1;jettySize=auto;html=1;exitX=0.5;exitY=1;exitDx=0;exitDy=0;" parent="1" source="b4sl9bxFcRuKotRHlQ8d-3" target="b4sl9bxFcRuKotRHlQ8d-9" edge="1">
          <mxGeometry relative="1" as="geometry" />
        </mxCell>
        <mxCell id="b4sl9bxFcRuKotRHlQ8d-3" value="16A" style="rounded=1;whiteSpace=wrap;html=1;" parent="1" vertex="1">
          <mxGeometry x="98.75" y="131" width="45" height="30" as="geometry" />
        </mxCell>
        <mxCell id="b4sl9bxFcRuKotRHlQ8d-7" value="TRUE" style="edgeStyle=orthogonalEdgeStyle;rounded=0;orthogonalLoop=1;jettySize=auto;html=1;exitX=1;exitY=0.5;exitDx=0;exitDy=0;entryX=0;entryY=0.5;entryDx=0;entryDy=0;" parent="1" source="b4sl9bxFcRuKotRHlQ8d-4" target="b4sl9bxFcRuKotRHlQ8d-5" edge="1">
          <mxGeometry relative="1" as="geometry" />
        </mxCell>
        <mxCell id="b4sl9bxFcRuKotRHlQ8d-11" value="FALSE" style="rounded=0;orthogonalLoop=1;jettySize=auto;html=1;exitX=0.5;exitY=1;exitDx=0;exitDy=0;entryX=0.5;entryY=0;entryDx=0;entryDy=0;" parent="1" source="b4sl9bxFcRuKotRHlQ8d-4" target="b4sl9bxFcRuKotRHlQ8d-9" edge="1">
          <mxGeometry relative="1" as="geometry" />
        </mxCell>
        <mxCell id="b4sl9bxFcRuKotRHlQ8d-4" value="16B&lt;span style=&quot;color: rgba(0, 0, 0, 0); font-family: monospace; font-size: 0px; text-align: start; text-wrap: nowrap;&quot;&gt;%3CmxGraphModel%3E%3Croot%3E%3CmxCell%20id%3D%220%22%2F%3E%3CmxCell%20id%3D%221%22%20parent%3D%220%22%2F%3E%3CmxCell%20id%3D%222%22%20value%3D%2216A%22%20style%3D%22rounded%3D1%3BwhiteSpace%3Dwrap%3Bhtml%3D1%3B%22%20vertex%3D%221%22%20parent%3D%221%22%3E%3CmxGeometry%20x%3D%22272.5%22%20y%3D%22110%22%20width%3D%2245%22%20height%3D%2230%22%20as%3D%22geometry%22%2F%3E%3C%2FmxCell%3E%3C%2Froot%3E%3C%2FmxGraphModel%3E&lt;/span&gt;" style="rounded=1;whiteSpace=wrap;html=1;" parent="1" vertex="1">
          <mxGeometry x="226.25" y="131" width="45" height="30" as="geometry" />
        </mxCell>
        <mxCell id="eHPXyO3sQcAdTTc5_39L-9" style="edgeStyle=orthogonalEdgeStyle;rounded=0;orthogonalLoop=1;jettySize=auto;html=1;exitX=1;exitY=0.5;exitDx=0;exitDy=0;entryX=0.5;entryY=0;entryDx=0;entryDy=0;" edge="1" parent="1" source="b4sl9bxFcRuKotRHlQ8d-5" target="b4sl9bxFcRuKotRHlQ8d-27">
          <mxGeometry relative="1" as="geometry" />
        </mxCell>
        <mxCell id="b4sl9bxFcRuKotRHlQ8d-5" value="17" style="rounded=1;whiteSpace=wrap;html=1;" parent="1" vertex="1">
          <mxGeometry x="356.25" y="131" width="45" height="30" as="geometry" />
        </mxCell>
        <mxCell id="b4sl9bxFcRuKotRHlQ8d-18" value="Blinky" style="rounded=0;orthogonalLoop=1;jettySize=auto;html=1;exitX=1;exitY=0.5;exitDx=0;exitDy=0;entryX=0;entryY=0.5;entryDx=0;entryDy=0;" parent="1" source="eHPXyO3sQcAdTTc5_39L-1" target="b4sl9bxFcRuKotRHlQ8d-12" edge="1">
          <mxGeometry relative="1" as="geometry" />
        </mxCell>
        <mxCell id="b4sl9bxFcRuKotRHlQ8d-19" value="Pinky" style="rounded=0;orthogonalLoop=1;jettySize=auto;html=1;exitX=1;exitY=0.5;exitDx=0;exitDy=0;entryX=0;entryY=0.5;entryDx=0;entryDy=0;" parent="1" source="eHPXyO3sQcAdTTc5_39L-2" target="b4sl9bxFcRuKotRHlQ8d-13" edge="1">
          <mxGeometry relative="1" as="geometry" />
        </mxCell>
        <mxCell id="b4sl9bxFcRuKotRHlQ8d-20" value="Inky" style="rounded=0;orthogonalLoop=1;jettySize=auto;html=1;exitX=1;exitY=0.5;exitDx=0;exitDy=0;entryX=0;entryY=0.5;entryDx=0;entryDy=0;" parent="1" source="eHPXyO3sQcAdTTc5_39L-3" target="b4sl9bxFcRuKotRHlQ8d-14" edge="1">
          <mxGeometry relative="1" as="geometry" />
        </mxCell>
        <mxCell id="b4sl9bxFcRuKotRHlQ8d-21" value="Clyde" style="rounded=0;orthogonalLoop=1;jettySize=auto;html=1;exitX=1;exitY=0.5;exitDx=0;exitDy=0;entryX=0;entryY=0.5;entryDx=0;entryDy=0;" parent="1" source="eHPXyO3sQcAdTTc5_39L-4" target="b4sl9bxFcRuKotRHlQ8d-15" edge="1">
          <mxGeometry relative="1" as="geometry" />
        </mxCell>
        <mxCell id="b4sl9bxFcRuKotRHlQ8d-22" value="default" style="rounded=0;orthogonalLoop=1;jettySize=auto;html=1;exitX=0.5;exitY=1;exitDx=0;exitDy=0;entryX=0.5;entryY=0;entryDx=0;entryDy=0;" parent="1" source="eHPXyO3sQcAdTTc5_39L-4" target="b4sl9bxFcRuKotRHlQ8d-16" edge="1">
          <mxGeometry relative="1" as="geometry" />
        </mxCell>
        <mxCell id="eHPXyO3sQcAdTTc5_39L-5" value="" style="edgeStyle=orthogonalEdgeStyle;rounded=0;orthogonalLoop=1;jettySize=auto;html=1;" edge="1" parent="1" source="b4sl9bxFcRuKotRHlQ8d-9" target="eHPXyO3sQcAdTTc5_39L-1">
          <mxGeometry relative="1" as="geometry" />
        </mxCell>
        <mxCell id="b4sl9bxFcRuKotRHlQ8d-9" value="18" style="rounded=1;whiteSpace=wrap;html=1;" parent="1" vertex="1">
          <mxGeometry x="98.75" y="221" width="45" height="30" as="geometry" />
        </mxCell>
        <mxCell id="b4sl9bxFcRuKotRHlQ8d-23" style="rounded=0;orthogonalLoop=1;jettySize=auto;html=1;exitX=1;exitY=0.5;exitDx=0;exitDy=0;" parent="1" source="b4sl9bxFcRuKotRHlQ8d-12" target="b4sl9bxFcRuKotRHlQ8d-17" edge="1">
          <mxGeometry relative="1" as="geometry" />
        </mxCell>
        <mxCell id="b4sl9bxFcRuKotRHlQ8d-12" value="20-21" style="rounded=1;whiteSpace=wrap;html=1;" parent="1" vertex="1">
          <mxGeometry x="222" y="290" width="45" height="30" as="geometry" />
        </mxCell>
        <mxCell id="b4sl9bxFcRuKotRHlQ8d-24" style="rounded=0;orthogonalLoop=1;jettySize=auto;html=1;exitX=1;exitY=0.5;exitDx=0;exitDy=0;" parent="1" source="b4sl9bxFcRuKotRHlQ8d-13" target="b4sl9bxFcRuKotRHlQ8d-17" edge="1">
          <mxGeometry relative="1" as="geometry" />
        </mxCell>
        <mxCell id="b4sl9bxFcRuKotRHlQ8d-13" value="23-24" style="rounded=1;whiteSpace=wrap;html=1;" parent="1" vertex="1">
          <mxGeometry x="222" y="360" width="45" height="30" as="geometry" />
        </mxCell>
        <mxCell id="b4sl9bxFcRuKotRHlQ8d-25" style="rounded=0;orthogonalLoop=1;jettySize=auto;html=1;exitX=1;exitY=0.5;exitDx=0;exitDy=0;" parent="1" source="b4sl9bxFcRuKotRHlQ8d-14" target="b4sl9bxFcRuKotRHlQ8d-17" edge="1">
          <mxGeometry relative="1" as="geometry" />
        </mxCell>
        <mxCell id="b4sl9bxFcRuKotRHlQ8d-14" value="26-27" style="rounded=1;whiteSpace=wrap;html=1;" parent="1" vertex="1">
          <mxGeometry x="222" y="420" width="45" height="30" as="geometry" />
        </mxCell>
        <mxCell id="b4sl9bxFcRuKotRHlQ8d-26" style="rounded=0;orthogonalLoop=1;jettySize=auto;html=1;exitX=0.5;exitY=1;exitDx=0;exitDy=0;" parent="1" source="b4sl9bxFcRuKotRHlQ8d-15" target="b4sl9bxFcRuKotRHlQ8d-17" edge="1">
          <mxGeometry relative="1" as="geometry" />
        </mxCell>
        <mxCell id="b4sl9bxFcRuKotRHlQ8d-15" value="29-30" style="rounded=1;whiteSpace=wrap;html=1;" parent="1" vertex="1">
          <mxGeometry x="222" y="480" width="45" height="30" as="geometry" />
        </mxCell>
        <mxCell id="b4sl9bxFcRuKotRHlQ8d-29" style="edgeStyle=orthogonalEdgeStyle;rounded=0;orthogonalLoop=1;jettySize=auto;html=1;exitX=1;exitY=0.5;exitDx=0;exitDy=0;" parent="1" source="b4sl9bxFcRuKotRHlQ8d-16" target="b4sl9bxFcRuKotRHlQ8d-27" edge="1">
          <mxGeometry relative="1" as="geometry" />
        </mxCell>
        <mxCell id="b4sl9bxFcRuKotRHlQ8d-16" value="31-32" style="rounded=1;whiteSpace=wrap;html=1;" parent="1" vertex="1">
          <mxGeometry x="98.75" y="550" width="45" height="30" as="geometry" />
        </mxCell>
        <mxCell id="b4sl9bxFcRuKotRHlQ8d-28" style="edgeStyle=orthogonalEdgeStyle;rounded=0;orthogonalLoop=1;jettySize=auto;html=1;exitX=1;exitY=0.5;exitDx=0;exitDy=0;entryX=0;entryY=0.5;entryDx=0;entryDy=0;" parent="1" source="b4sl9bxFcRuKotRHlQ8d-17" target="b4sl9bxFcRuKotRHlQ8d-27" edge="1">
          <mxGeometry relative="1" as="geometry" />
        </mxCell>
        <mxCell id="b4sl9bxFcRuKotRHlQ8d-17" value="34" style="rounded=1;whiteSpace=wrap;html=1;" parent="1" vertex="1">
          <mxGeometry x="356.25" y="390" width="45" height="30" as="geometry" />
        </mxCell>
        <mxCell id="b4sl9bxFcRuKotRHlQ8d-27" value="" style="ellipse;html=1;shape=endState;fillColor=#000000;strokeColor=#ff0000;" parent="1" vertex="1">
          <mxGeometry x="470" y="390" width="30" height="30" as="geometry" />
        </mxCell>
        <mxCell id="b4sl9bxFcRuKotRHlQ8d-31" value="&lt;h1 style=&quot;margin-top: 0px;&quot;&gt;&lt;font style=&quot;font-size: 17px;&quot;&gt;Diagrama de Control&lt;/font&gt;&lt;/h1&gt;&lt;p&gt;Complexitat ciclomÃ tica = 6+1=7&lt;/p&gt;&lt;p&gt;Ens indica la complexitat del codi.&lt;/p&gt;&lt;p&gt;Fitxa&#39;t que no hi ha cap bucle, tots els camins sÃ³n de 0 voltes.&lt;/p&gt;&lt;p&gt;&lt;b&gt;&lt;font style=&quot;font-size: 14px;&quot;&gt;Conjunt bÃ sic:&lt;/font&gt;&lt;/b&gt; mÃ­nim nombre de camins per aconseguir cobertura mÃ xima, el nombre de camins serÃ  inferior a complexitat ciclomÃ tica.&lt;/p&gt;&lt;p&gt;Hi ha varies solucions, per exemple:&lt;/p&gt;&lt;p&gt;16A -&amp;gt; 16B -&amp;gt; 17&lt;/p&gt;&lt;p&gt;16A -&amp;gt; 18 -&amp;gt; 19 -&amp;gt; 20-21 -&amp;gt; 34&lt;/p&gt;&lt;p&gt;16A -&amp;gt; 16B -&amp;gt; 18 -&amp;gt; 19 -&amp;gt; 22 -&amp;gt; 23-24 -&amp;gt; 34&lt;/p&gt;&lt;p&gt;16A -&amp;gt; 18 -&amp;gt; 19 -&amp;gt; 22 -&amp;gt; 25 -&amp;gt; 26-27 -&amp;gt; 34&lt;/p&gt;&lt;p&gt;16A -&amp;gt; 18 -&amp;gt;&amp;nbsp;&lt;span style=&quot;background-color: initial;&quot;&gt;19 -&amp;gt; 22 -&amp;gt; 25 -&amp;gt; 2&lt;/span&gt;&lt;span style=&quot;background-color: initial;&quot;&gt;8 -&amp;gt; 29-30 -&amp;gt; 34&lt;/span&gt;&lt;/p&gt;&lt;p&gt;16A -&amp;gt; 18 -&amp;gt;&amp;nbsp;&lt;span style=&quot;background-color: initial;&quot;&gt;19 -&amp;gt; 22 -&amp;gt; 25 -&amp;gt; 2&lt;/span&gt;&lt;span style=&quot;background-color: initial;&quot;&gt;8 -&amp;gt;&lt;/span&gt;&lt;span style=&quot;background-color: initial;&quot;&gt;31-32&lt;/span&gt;&lt;/p&gt;&lt;p&gt;&lt;br&gt;&lt;/p&gt;" style="text;html=1;whiteSpace=wrap;overflow=hidden;rounded=0;" parent="1" vertex="1">
          <mxGeometry x="585" y="150" width="360" height="400" as="geometry" />
        </mxCell>
        <mxCell id="eHPXyO3sQcAdTTc5_39L-6" value="" style="edgeStyle=orthogonalEdgeStyle;rounded=0;orthogonalLoop=1;jettySize=auto;html=1;" edge="1" parent="1" source="eHPXyO3sQcAdTTc5_39L-1" target="eHPXyO3sQcAdTTc5_39L-2">
          <mxGeometry relative="1" as="geometry" />
        </mxCell>
        <mxCell id="eHPXyO3sQcAdTTc5_39L-1" value="19" style="rounded=1;whiteSpace=wrap;html=1;" vertex="1" parent="1">
          <mxGeometry x="98.75" y="290" width="45" height="30" as="geometry" />
        </mxCell>
        <mxCell id="eHPXyO3sQcAdTTc5_39L-7" style="edgeStyle=orthogonalEdgeStyle;rounded=0;orthogonalLoop=1;jettySize=auto;html=1;exitX=0.5;exitY=1;exitDx=0;exitDy=0;" edge="1" parent="1" source="eHPXyO3sQcAdTTc5_39L-2" target="eHPXyO3sQcAdTTc5_39L-3">
          <mxGeometry relative="1" as="geometry" />
        </mxCell>
        <mxCell id="eHPXyO3sQcAdTTc5_39L-2" value="22" style="rounded=1;whiteSpace=wrap;html=1;" vertex="1" parent="1">
          <mxGeometry x="98.75" y="360" width="45" height="30" as="geometry" />
        </mxCell>
        <mxCell id="eHPXyO3sQcAdTTc5_39L-8" style="edgeStyle=orthogonalEdgeStyle;rounded=0;orthogonalLoop=1;jettySize=auto;html=1;exitX=0.5;exitY=1;exitDx=0;exitDy=0;entryX=0.5;entryY=0;entryDx=0;entryDy=0;" edge="1" parent="1" source="eHPXyO3sQcAdTTc5_39L-3" target="eHPXyO3sQcAdTTc5_39L-4">
          <mxGeometry relative="1" as="geometry" />
        </mxCell>
        <mxCell id="eHPXyO3sQcAdTTc5_39L-3" value="25" style="rounded=1;whiteSpace=wrap;html=1;" vertex="1" parent="1">
          <mxGeometry x="98.75" y="420" width="45" height="30" as="geometry" />
        </mxCell>
        <mxCell id="eHPXyO3sQcAdTTc5_39L-4" value="28" style="rounded=1;whiteSpace=wrap;html=1;" vertex="1" parent="1">
          <mxGeometry x="98.75" y="480" width="45" height="30" as="geometry" />
        </mxCell>
      </root>
    </mxGraphModel>
  </diagram>
</mxfile>
